<svg height="512" viewBox="0 0 64 64" width="512" xmlns="http://www.w3.org/2000/svg"><g id="Twotone"><g id="Color_copy" data-name="Color copy"><g><path d="m45 55a34 34 0 0 1 -34-34v36a4 4 0 0 0 4 4h34a4 4 0 0 0 4-4v-2z" fill="#cff09e"/><g fill="#a8dba8"><rect height="28" rx="2" width="6" x="29" y="25"/><rect height="28" rx="2" width="6" x="41" y="25"/><rect height="28" rx="2" width="6" x="17" y="25"/></g><path d="m42 9v-2a2 2 0 0 0 -2-2h-13a2 2 0 0 1 -2-2h-1a4 4 0 0 0 -4 4v6h4v-6h16v6h4v-2a2 2 0 0 1 -2-2z" fill="#cff09e"/><path d="m12 13h-1a4 4 0 0 0 -4 4v4h50v-4h-41a4 4 0 0 1 -4-4z" fill="#cff09e"/></g></g><g id="Stroke_Close_copy" data-name="Stroke Close copy"><g fill="#3b8686"><path d="m53 12h-8v-5a5.006 5.006 0 0 0 -5-5h-16a5.006 5.006 0 0 0 -5 5v5h-8a5.006 5.006 0 0 0 -5 5v4a1 1 0 0 0 1 1h3v35a5.006 5.006 0 0 0 5 5h34a5.006 5.006 0 0 0 5-5v-35h3a1 1 0 0 0 1-1v-4a5.006 5.006 0 0 0 -5-5zm-32-5a3 3 0 0 1 3-3h16a3 3 0 0 1 3 3v5h-2v-5a1 1 0 0 0 -1-1h-16a1 1 0 0 0 -1 1v5h-2zm4 5v-4h14v4zm27 45a3 3 0 0 1 -3 3h-34a3 3 0 0 1 -3-3v-35h40zm4-37h-48v-3a3 3 0 0 1 3-3h42a3 3 0 0 1 3 3z"/><path d="m31 54h2a3 3 0 0 0 3-3v-24a3 3 0 0 0 -3-3h-2a3 3 0 0 0 -3 3v24a3 3 0 0 0 3 3zm-1-27a1 1 0 0 1 1-1h2a1 1 0 0 1 1 1v24a1 1 0 0 1 -1 1h-2a1 1 0 0 1 -1-1z"/><path d="m43 54h2a3 3 0 0 0 3-3v-24a3 3 0 0 0 -3-3h-2a3 3 0 0 0 -3 3v24a3 3 0 0 0 3 3zm-1-27a1 1 0 0 1 1-1h2a1 1 0 0 1 1 1v24a1 1 0 0 1 -1 1h-2a1 1 0 0 1 -1-1z"/><path d="m19 54h2a3 3 0 0 0 3-3v-24a3 3 0 0 0 -3-3h-2a3 3 0 0 0 -3 3v24a3 3 0 0 0 3 3zm-1-27a1 1 0 0 1 1-1h2a1 1 0 0 1 1 1v24a1 1 0 0 1 -1 1h-2a1 1 0 0 1 -1-1z"/><path d="m17 58h31a1 1 0 0 0 0-2h-31a1 1 0 0 0 0 2z"/><path d="m53 16h-42a1 1 0 0 0 0 2h42a1 1 0 0 0 0-2z"/></g></g></g></svg>